<svg xmlns="http://www.w3.org/2000/svg" version="1.1" xmlns:xlink="http://www.w3.org/1999/xlink" width="512" height="512" x="0" y="0" viewBox="0 0 511.998 511.998" style="enable-background:new 0 0 512 512" xml:space="preserve" class=""><g><path d="m199.98 386.143-3.18-15.89-24.811-15.26-18.27 3.84 7.03 35.161c3.079 15.304.85 31.432-6.36 45.241-7.723 15.044-17.637 21.403-24.531 28.621-7.81 7.81-7.81 20.47 0 28.281 7.81 7.81 20.48 7.81 28.291 0 4.912-5.665 27.156-20.579 38.351-54.061 6-18.012 7.2-37.352 3.48-55.933z" style="" fill="#ed4c74" data-original="#ed4c74" class=""></path><path d="M382.124 15.845c7.81 7.81 7.81 20.47 0 28.281l-13.4 13.98a69.312 69.312 0 0 0-12.56 17.21 69.463 69.463 0 0 0-4.15 9.82 69.23 69.23 0 0 0-2.21 35.431l7.03 35.151-13.84 8.27c-10.69-4.41-18.18-17.85-29.231-19.68l-3.18-15.9a109.172 109.172 0 0 1 3.49-55.921c5.32-15.99 14.44-30.751 26.361-42.661l13.4-13.98c7.809-7.811 20.48-7.811 28.29-.001zM368.253 198.799l.01-.03-22.27-13.78-21.54 3.11c13.211 39.079 3.461 82.272-26.311 112.042-29.677 29.677-72.838 39.567-112.052 26.311-18.671-6.291 6.263-.471-43.781-10.69-9.211-.975-36.207-11.578-71.822.3-30.882 10.293-44.865 29.566-54.641 37.771-7.81 7.81-7.81 20.48 0 28.291 7.81 7.81 20.47 7.81 28.281 0 11.75-10.639 19.832-21.705 39.021-28.121 25.983-8.638 43.566.896 70.572 4.83l10.38 2.08c55.668 22.965 119.271 10.57 162.333-32.481 34.69-34.701 49.591-82.882 41.82-129.633z" style="" fill="#78d4ff" data-original="#78d4ff" class=""></path><path d="M496.136 130.438c-7.81-7.81-20.47-7.81-28.281 0-11.357 10.613-19.732 23.19-40.431 30.111-25.947 8.648-43.56-.889-70.592-4.83l-10.37-2.07a149.908 149.908 0 0 0-32.701-9.34c-46.761-7.77-94.942 7.13-129.633 41.821s-49.591 82.872-41.821 129.633l43.781 10.69c-13.2-39.092-3.439-82.283 26.321-112.042 29.749-29.749 72.97-39.528 112.042-26.311 17.479 5.869-4.383.997 43.811 10.67 20.822 4.201 41.97 9.671 71.812-.27 32.675-10.926 47.257-32.214 56.061-39.781 7.811-7.811 7.811-20.471.001-28.281z" style="" fill="#ed4c74" data-original="#ed4c74" class=""></path><path d="M417.474 80.057c3.91-3.9 3.91-10.23 0-14.14-3.9-3.9-10.23-3.91-14.14 0-3.9 3.91-3.9 10.24 0 14.14 3.91 3.91 10.24 3.91 14.14 0zM261.911 263.911c-3.91 3.91-3.9 10.24 0 14.14 3.91 3.91 10.24 3.91 14.14 0 3.91-3.9 3.91-10.23 0-14.14-3.9-3.91-10.23-3.9-14.14 0zM79.487 417.474c3.9-3.9 3.75-10.08-.16-13.98-3.9-3.91-10.08-4.06-13.99-.16-3.9 3.91-3.9 10.24 0 14.14a10 10 0 0 0 14.15 0z" fill="#000000" opacity="1" data-original="#000000" class=""></path><path d="M51.101 389.291 63 377.967l.178-.173a58.645 58.645 0 0 1 8.559-7.068l70.099 70.098a58.643 58.643 0 0 1-6.985 8.474l-4.82 4.586-22.263-22.262c-3.905-3.905-10.237-3.905-14.142 0-3.905 3.905-3.905 10.237 0 14.142l23.292 23.292c-5.229 10.924-3.541 24.74 5.867 34.149 11.597 11.596 30.517 11.814 42.339.094l11.89-11.324.172-.167c12.994-12.983 22.952-29.086 28.8-46.574 10.981-32.965 3.386-62.577 3.323-63.43 45.169 3.335 90.89-13.006 124.195-46.302 32.903-32.912 49.683-78.484 46.307-124.198 21.406 4.338 42.043 3.805 63.434-3.322 17.478-5.844 33.581-15.801 46.561-28.793l13.4-13.4c11.723-11.723 11.725-30.698 0-42.423-9.405-9.405-23.22-11.097-34.148-5.868l-23.293-23.292c-3.905-3.905-10.237-3.905-14.143 0-3.905 3.905-3.905 10.237 0 14.143l22.089 22.089-6.329 6.329a58.884 58.884 0 0 1-8.558 7.069l-70.102-70.102a58.971 58.971 0 0 1 7.071-8.556l.148-.151 13.334-13.912c11.613-11.703 11.586-30.672-.082-42.341-11.699-11.698-30.734-11.698-42.434 0l-.148.151-13.323 13.902c-12.98 12.994-22.905 29.073-28.7 46.489a119.186 119.186 0 0 0-3.811 61.051l.476 2.38c-45.719-3.376-91.291 13.406-124.194 46.309s-49.684 78.474-46.308 124.194l-2.38-.476a119.277 119.277 0 0 0-61.045 3.799c-17.426 5.809-33.496 15.73-46.481 28.698L8.952 346.589l-.178.173c-11.698 11.699-11.698 30.735 0 42.434 11.651 11.649 30.609 11.708 42.327.095zm94.12-21.957c3.679 23.187 9.774 34.88 5.28 53.87l-59.14-59.14a59.273 59.273 0 0 1 25.248-.454l28.612 5.724zm41.795 71.569c-4.853 14.515-13.11 27.887-23.882 38.675l-11.881 11.315-.175.17a10 10 0 0 1-14.147 0 9.991 9.991 0 0 1-.073-14.065l11.875-11.3.178-.173c9.173-9.174 15.549-20.218 19.137-30.955 9.092-27.324.223-46.87-1.373-59.95a160.508 160.508 0 0 0 21.64 6.191c.459 4.847 9.039 29.061-1.299 60.092zm178.316-291.682c-3.658-23.089-9.773-34.821-5.265-53.858l59.133 59.132c-19.005 4.503-30.581-1.579-53.868-5.274zm-41.771-71.577c4.833-14.526 13.111-27.924 23.94-38.744l.151-.154 13.314-13.891c3.905-3.839 10.205-3.818 14.085.062 3.898 3.897 3.898 10.24 0 14.138l-.148.151-13.33 13.907a79.497 79.497 0 0 0-19.049 30.864c-9.123 27.395-.21 47.108 1.354 59.959a160.423 160.423 0 0 0-21.63-6.188c-.46-4.855-9.051-29.084 1.313-60.104zM191.202 193.201c39.074-39.074 98.399-52.191 151.448-30.308 1.697.7-.842-.043 47.372 9.659a79.126 79.126 0 0 0 40.574-2.52 79.577 79.577 0 0 0 30.932-19.123l13.4-13.399a9.99 9.99 0 0 1 14.138 0 9.99 9.99 0 0 1 0 14.137l-13.402 13.403c-10.803 10.812-24.207 19.099-38.748 23.962-16.356 5.449-33.925 6.541-50.781 3.168-47.119-9.568-47.525-9.276-49.492-10.122-14.396-6.17-30.443-9.729-47.17-9.729-31.655 0-61.747 12.624-84.133 35.01-27.662 27.663-39.777 66.379-33.308 104.17l-20.794-4.159c-4.815-41.802 9.846-84.033 39.964-114.149zm75.4 117.829-65.08-65.08a98.924 98.924 0 0 1 11.244-17.041l20.863 20.863c3.905 3.905 10.237 3.905 14.143 0 3.905-3.905 3.905-10.237 0-14.143l-20.863-20.863a98.906 98.906 0 0 1 17.041-11.244l65.082 65.083a99.552 99.552 0 0 1-17.962 24.467 99.643 99.643 0 0 1-24.468 17.958zm-72.515 7.428c-4.852-17.151-4.974-35.116-.471-52.129l52.611 52.61c-17.01 4.506-34.976 4.38-52.14-.481zM316.46 196.1c4.856 17.149 4.981 35.11.477 52.123l-52.632-52.632a97.915 97.915 0 0 1 25.167-3.262 98.82 98.82 0 0 1 26.988 3.771zM22.844 360.978l11.875-11.3c.061-.058.121-.117.18-.176 10.816-10.825 24.216-19.107 38.751-23.953a99.255 99.255 0 0 1 50.796-3.161l47.515 9.503c3.338.661 45.655 22.832 96.847.281 13.575-6.418 24.455-13.009 36.404-24.959 28.021-28.02 39.685-66.911 33.306-104.153 1.563.313 13.115 2.585 20.803 4.119 4.825 41.804-9.836 84.05-39.96 114.181-39.121 39.111-98.456 52.17-151.449 30.309-1.51-.622-47.262-9.647-47.38-9.671-13.459-2.696-27.478-1.826-40.557 2.521-10.768 3.601-21.75 9.973-30.85 19.042L37.231 374.88c-.06.057-.119.115-.177.173a9.99 9.99 0 0 1-14.138 0c-3.882-3.883-3.907-10.162-.072-14.075z" fill="#000000" opacity="1" data-original="#000000" class=""></path></g></svg>